<?xml version="1.0" encoding="UTF-8"?>
<svg version="1.1" xmlns="http://www.w3.org/2000/svg" viewBox="635 550 730 905">
<path d="M0 0 C7.27 3.26 13.03 8.67 18.94 13.88 C21.26 15.9 23.64 17.83 26.02 19.76 C30.63 23.51 35.17 27.33 39.69 31.18 C43.08 34.06 46.51 36.89 49.96 39.7 C54.82 43.66 59.58 47.73 64.33 51.82 C68.74 55.61 73.23 59.31 77.75 62.98 C80.87 65.54 83.95 68.15 87.02 70.76 C90.99 74.13 94.98 77.47 99.02 80.76 C103.63 84.51 108.16 88.33 112.69 92.18 C116.1 95.07 119.55 97.93 123.02 100.76 C127.63 104.51 132.16 108.33 136.69 112.18 C140.1 115.07 143.55 117.93 147.02 120.76 C153.83 126.3 160.5 131.99 167.19 137.68 C173.65 143.16 180.14 148.6 186.71 153.95 C190.4 156.99 194.04 160.08 197.69 163.18 C201.1 166.07 204.55 168.93 208.02 171.76 C212.63 175.51 217.16 179.33 221.69 183.18 C225.1 186.07 228.55 188.93 232.02 191.76 C236.63 195.51 241.17 199.33 245.69 203.18 C249.08 206.06 252.51 208.89 255.96 211.7 C260.82 215.66 265.58 219.73 270.33 223.82 C274.74 227.61 279.23 231.31 283.75 234.98 C286.87 237.54 289.95 240.15 293.02 242.76 C296.99 246.13 300.98 249.47 305.02 252.76 C309.63 256.51 314.16 260.33 318.68 264.17 C322.16 267.12 325.67 270.02 329.21 272.89 C341.31 282.8 351.95 291.84 353.75 308.37 C354.13 314.41 354.06 320.45 354.02 326.5 C354.03 328.55 354.03 330.6 354.04 332.65 C354.06 338.27 354.05 343.89 354.03 349.51 C354.02 355.58 354.03 361.64 354.04 367.71 C354.05 378.9 354.05 390.1 354.04 401.29 C354.02 411.64 354.02 421.98 354.02 432.32 C354.02 433.36 354.02 433.36 354.02 434.41 C354.02 437.2 354.02 439.99 354.02 442.78 C354.03 468.93 354.01 495.09 353.99 521.24 C353.96 544.45 353.96 567.66 353.97 590.87 C353.97 596.81 353.97 602.75 353.98 608.69 C353.98 609.43 353.98 610.16 353.98 610.91 C353.99 630.33 353.98 649.75 353.97 669.17 C353.97 671.26 353.97 673.35 353.96 675.45 C353.96 676.83 353.96 678.22 353.96 679.61 C353.96 689.94 353.96 700.27 353.96 710.6 C353.97 722.36 353.96 734.12 353.94 745.88 C353.93 751.87 353.93 757.87 353.93 763.86 C353.94 769.36 353.94 774.86 353.92 780.35 C353.91 782.33 353.91 784.31 353.92 786.29 C354.01 816.76 346.24 844.93 324.53 867.34 C315.43 876.37 305 882.7 293.52 888.26 C292.71 888.67 291.89 889.08 291.05 889.5 C275.36 896.63 257.49 896.85 240.6 896.76 C238.36 896.77 236.11 896.77 233.87 896.78 C227.75 896.79 221.63 896.78 215.52 896.77 C209.58 896.76 203.64 896.77 197.7 896.78 C184.83 896.79 171.95 896.79 159.07 896.77 C147.81 896.76 136.54 896.76 125.28 896.76 C124.15 896.76 124.15 896.76 123 896.76 C119.96 896.76 116.92 896.76 113.88 896.76 C85.39 896.77 56.9 896.75 28.41 896.73 C3.12 896.7 -22.16 896.7 -47.45 896.71 C-53.93 896.71 -60.41 896.71 -66.89 896.72 C-67.68 896.72 -68.48 896.72 -69.3 896.72 C-90.47 896.72 -111.63 896.72 -132.79 896.71 C-135.07 896.71 -137.35 896.7 -139.63 896.7 C-141.14 896.7 -142.65 896.7 -144.16 896.7 C-155.42 896.7 -166.68 896.7 -177.94 896.7 C-190.75 896.71 -203.55 896.7 -216.35 896.68 C-222.88 896.67 -229.41 896.67 -235.94 896.67 C-241.93 896.68 -247.91 896.67 -253.89 896.66 C-256.05 896.65 -258.21 896.65 -260.37 896.66 C-291.83 896.75 -317.58 887.71 -340.89 865.9 C-353.77 852.77 -362.03 835.98 -366.48 818.26 C-366.65 817.65 -366.82 817.04 -367 816.4 C-369.27 807.14 -368.76 797.59 -368.74 788.13 C-368.75 786.06 -368.75 783.99 -368.76 781.93 C-368.77 776.26 -368.77 770.6 -368.77 764.94 C-368.77 758.82 -368.78 752.71 -368.79 746.59 C-368.8 734.62 -368.81 722.65 -368.81 710.67 C-368.81 700.94 -368.82 691.21 -368.82 681.48 C-368.82 678.67 -368.83 675.87 -368.83 673.06 C-368.83 672.37 -368.83 671.67 -368.83 670.95 C-368.84 651.35 -368.85 631.75 -368.85 612.15 C-368.85 611.41 -368.85 610.67 -368.85 609.91 C-368.85 606.17 -368.85 602.42 -368.85 598.68 C-368.85 597.94 -368.85 597.19 -368.85 596.43 C-368.85 594.92 -368.85 593.42 -368.85 591.92 C-368.85 568.52 -368.86 545.13 -368.89 521.74 C-368.92 495.45 -368.94 469.16 -368.93 442.86 C-368.93 440.06 -368.93 437.25 -368.93 434.45 C-368.93 433.76 -368.93 433.07 -368.93 432.36 C-368.93 421.26 -368.95 410.15 -368.96 399.05 C-368.98 387.89 -368.98 376.73 -368.97 365.57 C-368.96 359.53 -368.96 353.48 -368.98 347.44 C-369 341.91 -368.99 336.37 -368.98 330.83 C-368.97 328.83 -368.98 326.84 -368.99 324.84 C-369.06 310.43 -368.43 296.71 -358.48 285.26 C-352.15 278.91 -345.3 273.2 -338.32 267.57 C-335.17 265.01 -332.07 262.39 -328.98 259.76 C-325.03 256.41 -321.06 253.09 -317.04 249.82 C-312.79 246.37 -308.62 242.83 -304.48 239.26 C-299.46 234.94 -294.39 230.71 -289.25 226.54 C-286.13 223.98 -283.05 221.38 -279.98 218.76 C-275.13 214.64 -270.22 210.59 -265.29 206.57 C-262.16 204 -259.06 201.39 -255.98 198.76 C-251.13 194.64 -246.22 190.59 -241.29 186.57 C-238.16 184 -235.06 181.39 -231.98 178.76 C-227.13 174.64 -222.22 170.59 -217.29 166.57 C-214.16 164 -211.06 161.39 -207.98 158.76 C-203.13 154.64 -198.22 150.59 -193.29 146.57 C-190.16 144 -187.06 141.39 -183.98 138.76 C-180.01 135.39 -176.02 132.05 -171.98 128.76 C-165.74 123.68 -159.61 118.47 -153.48 113.26 C-146.46 107.3 -139.43 101.38 -132.29 95.57 C-129.16 93 -126.06 90.39 -122.98 87.76 C-118.13 83.64 -113.22 79.59 -108.29 75.57 C-105.16 73 -102.06 70.39 -98.98 67.76 C-94.13 63.64 -89.22 59.59 -84.29 55.57 C-81.16 53 -78.06 50.39 -74.98 47.76 C-70.13 43.64 -65.22 39.59 -60.29 35.57 C-57.16 33 -54.07 30.39 -50.98 27.76 C-45.2 22.86 -39.38 18.02 -33.48 13.26 C-32.61 12.56 -32.61 12.56 -31.74 11.85 C-29.88 10.36 -28.02 8.87 -26.16 7.39 C-25.59 6.92 -25.01 6.46 -24.42 5.98 C-16.79 -0.07 -9.7 -2.89 0 0 Z " fill="#B85C38" transform="translate(1007.4765625,555.73828125)"/>
<path d="M0 0 C1.44 0.01 1.44 0.01 2.9 0.02 C19.39 0.43 31.94 7.27 43.28 19.13 C53.66 31.23 57.27 46.85 56.31 62.5 C53.1 83.6 38.53 97.15 23.31 110.5 C22.77 110.97 22.23 111.45 21.68 111.94 C17.59 115.5 13.47 119.02 9.31 122.5 C8.69 123.02 8.06 123.55 7.42 124.09 C-2.93 132.73 -13.64 140.78 -24.69 148.5 C-25.3 148.93 -25.91 149.36 -26.54 149.8 C-76.3 184.46 -133.13 209.12 -192.88 219.81 C-194.15 220.04 -195.43 220.27 -196.75 220.51 C-201.06 221.24 -205.36 221.9 -209.69 222.5 C-210.63 222.63 -211.58 222.76 -212.55 222.9 C-229.74 225.23 -246.71 225.98 -264.05 225.89 C-266.72 225.88 -269.39 225.88 -272.07 225.89 C-297.18 226.01 -321.88 224.04 -346.62 219.75 C-347.36 219.62 -348.1 219.5 -348.87 219.37 C-432.19 205.16 -432.19 205.16 -450.69 179.5 C-458.68 164.94 -462.04 150.35 -458.12 134 C-453.91 119.65 -445.35 107.57 -432.19 100.06 C-430.37 99.18 -428.53 98.33 -426.69 97.5 C-425.5 96.88 -425.5 96.88 -424.29 96.25 C-407.65 88.67 -389.16 94.54 -372.76 99.59 C-364.52 102.03 -356.08 103.71 -347.69 105.5 C-346.89 105.68 -346.09 105.85 -345.26 106.03 C-262.01 124.32 -176.46 112.9 -103.67 67.26 C-100.29 65.07 -96.98 62.81 -93.69 60.5 C-92.96 60 -92.24 59.49 -91.49 58.97 C-80.49 51.29 -69.96 43.12 -59.69 34.5 C-59.08 33.99 -58.47 33.48 -57.84 32.96 C-52.57 28.53 -47.32 24.09 -42.35 19.33 C-29.98 7.48 -17.57 -0.12 0 0 Z " fill="#FEFEFE" transform="translate(1209.6875,1081.5)"/>
</svg>
